<?xml version="1.0" encoding="UTF-8" standalone="no"?>
<!-- Created with Inkscape (http://www.inkscape.org/) -->

<svg
   width="1800"
   height="1080"
   viewBox="0 0 476.24999 285.75"
   version="1.1"
   id="svg1"
   xml:space="preserve"
   xmlns:inkscape="http://www.inkscape.org/namespaces/inkscape"
   xmlns:sodipodi="http://sodipodi.sourceforge.net/DTD/sodipodi-0.dtd"
   xmlns="http://www.w3.org/2000/svg"
   xmlns:svg="http://www.w3.org/2000/svg"><sodipodi:namedview
   id="namedview1"
   pagecolor="#ffffff"
   bordercolor="#000000"
   borderopacity="0.25"
   inkscape:showpageshadow="2"
   inkscape:pageopacity="0.0"
   inkscape:pagecheckerboard="0"
   inkscape:deskcolor="#d1d1d1"
   inkscape:document-units="mm"
   showgrid="false"><inkscape:page
     x="0"
     y="0"
     width="476.25"
     height="285.75"
     id="page3"
     margin="0"
     bleed="0" /><inkscape:grid
     id="grid5"
     units="mm"
     originx="0"
     originy="0"
     spacingx="0.99999998"
     spacingy="1"
     empcolor="#0099e5"
     empopacity="0.30196078"
     color="#0099e5"
     opacity="0.14901961"
     empspacing="5"
     dotted="false"
     gridanglex="30"
     gridanglez="30"
     visible="false" /></sodipodi:namedview><defs
   id="defs1" /><g
   inkscape:label="Layer 1"
   inkscape:groupmode="layer"
   id="layer1"><rect
     style="fill:#ffffff;fill-opacity:1;stroke-width:6"
     id="rect5"
     width="3599.9998"
     height="1295.9998"
     x="-1399.45"
     y="-385.33517"
     transform="matrix(0.13229167,0,0,0.13229167,185.13558,108.12663)" /><rect
     style="fill:#851a22;fill-opacity:1;stroke-width:0.835594"
     id="rect1-0"
     width="476.25"
     height="57.150002"
     x="-8.5265128e-14"
     y="228.59999" /><rect
     style="fill:#851a22;fill-opacity:1;stroke-width:0.835594"
     id="rect1-0-7"
     width="476.25"
     height="57.150002"
     x="-7.1054274e-14"
     y="0" /></g>



<g
   id="g3"
   transform="matrix(0.14619216,0,0,0.14619216,178.10574,73.023895)">
	<polygon
   id="polygon5"
   points="529.428,853.323 540.177,844.862 549.428,837.278 562.827,825.768 576.447,813.393 588.479,801.848 601.385,788.764 609.259,780.396 616.475,772.457 623.923,763.969 634.676,751.149 642.53,741.326 651.604,729.449 659.016,719.304 667.617,706.95 673.851,697.586 680.509,687.156 684.299,681.007 691.438,668.964 697.447,658.324 703.379,647.319 711.005,632.333 716.823,620.176 722.388,607.888 728.909,592.508 733.25,581.61 736.785,572.266 741.984,557.676 746.44,544.199 750.365,531.641 753.948,518.929 757.308,506.275 760.887,491.567 764.071,477.121 766.394,465.565 768.541,453.862 770.535,441.862 772.536,428.381 774.286,414.896 775.598,403.312 776.719,391.833 777.861,377.749 778.979,360.396 779.395,349.209 780,332.9 780,30.9 41.101,30.9 41.101,332.9 41.706,349.209 42.122,360.396 43.237,377.749 44.382,391.833 45.503,403.312 46.812,414.896 48.562,428.381 50.562,441.862 52.56,453.862 54.707,465.565 57.027,477.121 60.214,491.567 63.793,506.275 67.149,518.929 70.731,531.641 74.659,544.199 79.115,557.676 84.312,572.266 87.851,581.61 92.188,592.508 98.713,607.888 104.274,620.176 110.096,632.333 117.722,647.319 123.65,658.324 129.661,668.964 136.802,681.007 140.592,687.156 147.25,697.586 153.479,706.95 162.085,719.304 169.495,729.449 178.567,741.326 186.425,751.149 197.178,763.969 204.626,772.457 211.842,780.396 219.716,788.764 232.622,801.848 244.65,813.393 258.271,825.768 271.673,837.278 280.924,844.862 291.673,853.323 303.771,862.415 315.658,870.924 329.093,880.054 345.925,890.79 362.193,900.44 378.389,909.332 387.924,914.221 395.73,918.021 403.438,921.551 410.698,924.5 417.662,921.551 425.366,918.021 433.177,914.221 442.712,909.332 458.905,900.44 475.176,890.79 492.008,880.054 505.44,870.924 517.326,862.415 "
   stroke-miterlimit="10"
   stroke-width="5"
   stroke="#000000"
   fill="#f6f6f6"
   style="display:inline;fill:#851a22;fill-opacity:1" /><path
   id="path7"
   d="m 856.15637,204.10911 c 0,0 -20.24936,-18.56899 -20.59173,-60.46232 -0.002,-0.28284 -0.004,-19.08784 -0.004,-19.37306 0.39741,0 11.37524,0.002 11.76814,0.006 43.08052,0.47837 57.06216,21.65059 57.06216,21.65059 V 76.252123 c 0,0 -13.98799,20.761589 -57.11587,21.210587 -0.37438,0.0042 -11.33501,0.0056 -11.71337,0.0056 0,-0.378884 0.002,-13.984288 0.006,-14.358938 0.45746,-41.246689 20.58829,-58.106469 20.58829,-58.106469 h -68.68081 c 0,0 19.97657,16.926455 20.58458,57.735788 0.007,0.496623 0.0111,14.226381 0.0111,14.729619 -0.3392,0 -11.26094,-0.0013 -11.59563,-0.0048 -45.08712,-0.391319 -57.37992,-21.563012 -57.37992,-21.563012 v 69.796032 c 0,0 12.1621,-20.90711 57.06162,-21.41511 0.44053,-0.005 11.46731,-0.007 11.91393,-0.007 0,0.24924 -8e-4,19.01958 -0.003,19.26643 -0.30242,41.72321 -20.59305,60.56789 -20.59305,60.56789 h 68.68134 z"
   stroke-miterlimit="10"
   stroke-linejoin="bevel"
   stroke-width="0.79375"
   stroke="#231f20"
   fill="#bc2e2e"
   transform="matrix(3.7795276,0,0,3.7795276,-2695.5906,0)"
   inkscape:label="path7"
   style="display:inline;fill:#ffffff;fill-opacity:1" />
</g>

</svg>
